<svg width="18" height="22" viewBox="0 0 18 22" fill="none" xmlns="http://www.w3.org/2000/svg">
<path d="M9.00001 0.320801C6.81276 0.323381 4.71584 1.1934 3.16923 2.74002C1.62261 4.28664 0.752589 6.38356 0.750009 8.5708C0.747389 10.3582 1.33124 12.0971 2.41201 13.5208C2.41201 13.5208 2.63701 13.8171 2.67376 13.8598L9.00001 21.3208L15.3293 13.8561C15.3623 13.8163 15.588 13.5208 15.588 13.5208L15.5888 13.5186C16.669 12.0955 17.2526 10.3574 17.25 8.5708C17.2474 6.38356 16.3774 4.28664 14.8308 2.74002C13.2842 1.1934 11.1873 0.323381 9.00001 0.320801ZM9.00001 11.5708C8.40666 11.5708 7.82665 11.3949 7.3333 11.0652C6.83995 10.7356 6.45543 10.267 6.22837 9.71885C6.00131 9.17067 5.9419 8.56747 6.05765 7.98553C6.17341 7.40359 6.45913 6.86904 6.87869 6.44948C7.29825 6.02992 7.83279 5.7442 8.41474 5.62844C8.99668 5.51269 9.59988 5.5721 10.1481 5.79916C10.6962 6.02622 11.1648 6.41074 11.4944 6.90409C11.8241 7.39744 12 7.97746 12 8.5708C11.999 9.36615 11.6826 10.1286 11.1202 10.691C10.5578 11.2534 9.79535 11.5698 9.00001 11.5708Z" fill="#1F1F1F"/>
</svg>
